<?xml version="1.0" standalone="no"?><!DOCTYPE svg PUBLIC "-//W3C//DTD SVG 1.1//EN" "http://www.w3.org/Graphics/SVG/1.1/DTD/svg11.dtd"><svg t="1596323591432" class="icon" viewBox="0 0 1024 1024" version="1.1" xmlns="http://www.w3.org/2000/svg" p-id="3508" xmlns:xlink="http://www.w3.org/1999/xlink" width="200" height="200"><defs><style type="text/css"></style></defs><path d="M751.856 647.736c10.48-4.632 18.76-9.712 24.024-15.264 39.376-41.584 18.344-210.152 6.416-286.44 12.744-0.8 20.704-2.032 20.704-2.032s-20.992-33.24-33.912-73.712C753.432 221.264 750 172 698 137.672c-64.008-42.264-144.192 0-144.192 0s-62-32.072-117.808-6.672c-75.624 34.424-84.888 97.84-99.52 146.552C325.192 315.16 301 344 301 344s7.504 2.128 19.936 4.048c-12.848 77.48-34.728 244.328 7.184 284.424 6.032 5.768 14.128 10.912 23.728 15.52-49.768 42.64-81.344 105.904-81.344 176.576v177.384h562.984V824.56c0-70.808-31.696-134.184-81.632-176.824z" fill="#E6E7E8" p-id="3509"></path><path d="M441.024 530.192v-2.232c-64.6-27.592-109.896-91.632-109.896-166.32v-65.256a256.84 256.84 0 0 1-50.2-2.712c-12.848 77.48-34.728 244.328 7.184 284.424 6.032 5.768 14.128 10.912 23.728 15.52a231.472 231.472 0 0 1 130.272-54.976 38.288 38.288 0 0 1-1.088-8.448zM742.288 291.656a326.864 326.864 0 0 1-49.424-0.616v70.592c0 74.688-45.296 138.728-109.896 166.32v2.232c0 2.776-0.432 5.6-1.096 8.448a231.48 231.48 0 0 1 129.976 54.728c10.48-4.632 18.76-9.712 24.024-15.264 39.384-41.576 18.352-210.152 6.416-286.44z" fill="#FFD7E5" p-id="3510"></path><path d="M512 542.504a180.32 180.32 0 0 1-70.976-14.472v2.152c0 39.2 70.976 86.976 70.976 86.976s70.976-47.776 70.976-86.976v-2.152A180.176 180.176 0 0 1 512 542.504zM703.504 320.864c-3.784 0-7.376 1.12-10.64 3.104v37.672a182.16 182.16 0 0 1-2.568 30.256c3.92 3.136 8.384 5.072 13.208 5.072 14.888 0 26.952-17.04 26.952-38.056s-12.064-38.048-26.952-38.048zM331.136 361.64v-37.672a20.36 20.36 0 0 0-10.64-3.104c-14.888 0-26.952 17.04-26.952 38.056s12.064 38.056 26.952 38.056c4.824 0 9.288-1.936 13.208-5.072a181.48 181.48 0 0 1-2.568-30.264z" fill="#FFFFFF" p-id="3511"></path><path d="M581.864 538.68c-8.72 37.272-69.864 78.48-69.864 78.48s-61.144-41.208-69.864-78.488c-118.616 10.56-211.624 110.152-211.624 231.52v177.384h562.984V770.192c-0.008-121.36-93.016-220.952-211.632-231.512z" fill="#FFFFFF" p-id="3512"></path><path d="M573.24 558.056C553.84 588.92 512 617.16 512 617.16s-41.84-28.24-61.24-59.104c-122.712 6.368-220.248 107.872-220.248 232.168v177.384h562.984V790.232c-0.008-124.296-97.544-225.8-220.256-232.176z" fill="#0089EF" p-id="3513"></path><path d="M581.856 538.696C573.12 575.968 512 617.16 512 617.16s-61.12-41.192-69.856-78.464a232.8 232.8 0 0 0-16.664 2.032v406.848h173.04V540.728a237.472 237.472 0 0 0-16.664-2.032z" fill="#6DC9F7" p-id="3514"></path><path d="M512 542.504a180.32 180.32 0 0 1-70.976-14.472v2.152c0 39.2 70.976 86.976 70.976 86.976s70.976-47.776 70.976-86.976v-2.152A180.176 180.176 0 0 1 512 542.504z" fill="#FFFFFF" p-id="3515"></path><path d="M611.688 267.632C560.496 237.76 529.136 193.52 519.92 179.304h-4.872c-5.896 12.68-27.096 49.512-87.76 88.328-31.872 20.392-66.656 27.408-96.152 28.752v65.256c0 99.888 80.976 180.864 180.864 180.864s180.864-80.976 180.864-180.864v-70.592c-26.408-2.416-56.096-8.784-81.176-23.416z" fill="#FFFFFF" p-id="3516"></path><path d="M517 174.632s-14.696 45-89.712 93-166.288 22-166.288 22 24.192-28.84 35.48-66.448c14.632-48.712 23.888-112.128 99.52-146.552 55.808-25.408 117.808 6.672 117.808 6.672s80.184-42.264 144.192 0c52 34.328 55.432 83.592 71.088 132.624 12.92 40.464 33.912 73.712 33.912 73.712s-89.624 14-151.312-22-94.688-93.008-94.688-93.008z" fill="#FFD7E5" p-id="3517" data-spm-anchor-id="a313x.7781069.0.i1" class="selected"></path><path d="M615.152 372.768c-8.872 0-16.064 4.536-16.064 10.128s7.192 10.128 16.064 10.128 16.064-4.536 16.064-10.128-7.192-10.128-16.064-10.128zM408.848 370.52c-8.872 0-16.064 4.536-16.064 10.128s7.192 10.128 16.064 10.128 16.064-4.536 16.064-10.128-7.192-10.128-16.064-10.128z" fill="#FFD7E5" p-id="3518"></path><path d="M512 472.264c-27.632 0-41.696-19.048-42.28-19.864a8.16 8.16 0 0 1 13.216-9.592c0.496 0.656 10.12 13.128 29.064 13.128 18.896 0 29.048-13.104 29.152-13.232a8.176 8.176 0 0 1 13.016 9.856c-0.616 0.8-15.24 19.704-42.168 19.704z" fill="#FA759E" p-id="3519"></path><path d="M230.512 855.52h111.792v92.056H230.512zM681.704 855.52h111.792v92.056H681.704z" fill="#FFFFFF" p-id="3520"></path><path d="M744.688 615.184c-0.032-0.048-0.032-0.112-0.064-0.16-0.312-0.504-0.776-0.832-1.176-1.24a240.616 240.616 0 0 0-17.6-18.416c6.432-3.608 11.816-7.52 15.84-11.76 40.44-42.704 22.152-203.632 9.88-284.584 7.288-0.672 11.88-1.36 12.664-1.48a8 8 0 0 0 5.536-12.176c-0.2-0.32-20.592-32.832-33.056-71.864a638.104 638.104 0 0 1-7.88-27.408c-10.688-39.312-21.736-79.96-66.424-109.456-60-39.624-131.552-10.248-148.648-2.216-14.736-6.72-69.752-28.424-121.072-5.064-70.504 32.08-86.336 88.992-99.072 134.72-1.592 5.744-3.168 11.368-4.8 16.808-10.656 35.48-33.72 63.336-33.952 63.608a8.008 8.008 0 0 0 3.944 12.832c0.8 0.224 5.392 1.488 12.768 2.904-13.576 82.672-32.856 241.688 11.016 283.648 4.336 4.144 9.624 7.936 15.592 11.448a242.48 242.48 0 0 0-17.56 18.368c-0.432 0.432-0.92 0.792-1.248 1.328-0.032 0.056-0.032 0.112-0.064 0.168a239.296 239.296 0 0 0-56.8 155V947.576a8 8 0 0 0 8 8h562.984a8 8 0 0 0 8-8V770.192c0-59.024-21.392-113.12-56.808-155.008z m40.808 232.336H689.688V720.368c0-36.256 17.224-69.528 46.432-90.36a223.232 223.232 0 0 1 49.368 140.184v77.328z m-55.432-274.92c-3.792 4-9.592 7.84-17.04 11.456a239.568 239.568 0 0 0-112.592-51.008c-0.216-0.056-0.4-0.184-0.624-0.224-0.928-0.152-1.88-0.208-2.808-0.344-1.144-0.176-2.28-0.368-3.432-0.528 51.12-24.576 89.496-71.52 102.472-128.056 2.4 0.68 4.896 1.056 7.472 1.056 19.6 0 34.952-20.224 34.952-46.048s-15.352-46.056-34.952-46.056c-0.904 0-1.76 0.176-2.64 0.264v-13.376c12.936 0.808 24.816 0.744 34.72 0.328 13.712 90.296 27.824 237.312-5.528 272.536z m-431.76 45.24a224.56 224.56 0 0 1 119.168-67.368v389.104h-67.168v-219.2c0.008-41.008-19.28-78.656-52-102.536z m26.696-229.92a11.584 11.584 0 0 1-4.512 1.048c-10.272 0-18.952-13.76-18.952-30.048 0-16.296 8.68-30.056 18.952-30.056 0.896 0 1.776 0.136 2.64 0.336v32.44c0.008 8.92 0.672 17.688 1.872 26.28z m14.136-83.96c28.864-2.232 61.784-9.96 92.472-29.592 52.416-33.536 76.36-65.832 86.448-83.488 13.448 19.2 43.656 56.84 89.608 83.664 24.032 14.024 51.792 20.8 77.208 23.784v63.32c0 71.528-43.664 133.04-105.736 159.296-5.096 2.152-10.272 4.064-15.528 5.704l-0.232 0.08a174.744 174.744 0 0 1-102.744 0l-0.232-0.08a167.16 167.16 0 0 1-15.528-5.704c-62.072-26.256-105.736-87.768-105.736-159.296v-57.688z m361.728 25.24c0.864-0.2 1.744-0.336 2.64-0.336 10.272 0 18.952 13.76 18.952 30.056 0 16.288-8.68 30.048-18.952 30.048-1.56 0-3.056-0.432-4.512-1.048 1.2-8.592 1.872-17.36 1.872-26.28V329.2zM573.176 540.368c-8.224 24.848-42.752 53.824-61.176 67.048-18.432-13.224-52.952-42.2-61.176-67.048 0.664 0.232 1.352 0.376 2.024 0.6 4.088 1.352 8.224 2.608 12.432 3.68 0.568 0.144 1.144 0.256 1.72 0.4 4.288 1.056 8.64 1.952 13.04 2.704l1.416 0.256c4.776 0.776 9.608 1.36 14.496 1.776l1.128 0.088c4.928 0.384 9.896 0.648 14.928 0.648s9.992-0.256 14.928-0.648l1.128-0.088a191.728 191.728 0 0 0 14.496-1.776l1.416-0.256a184.56 184.56 0 0 0 13.04-2.704c0.576-0.136 1.152-0.256 1.728-0.4a186.656 186.656 0 0 0 12.432-3.68c0.648-0.224 1.336-0.376 2-0.6zM440 555.432c17.288 33.712 61.416 64.248 67.528 68.368a7.976 7.976 0 0 0 8.944 0c6.112-4.112 50.24-34.656 67.528-68.368v1.36c0 30.616-48.376 71.448-72 88.296-23.624-16.848-72-57.68-72-88.296v-1.36zM304.152 225.488c1.664-5.536 3.256-11.264 4.88-17.12 12.456-44.736 26.568-95.448 90.28-124.456 51.512-23.448 110.24 6.208 110.824 6.504 2.336 1.192 5.096 1.176 7.4-0.024 0.76-0.4 76.848-39.488 136.064-0.408 39.64 26.168 49.432 62.176 59.792 100.304 2.496 9.168 5.072 18.64 8.088 28.08 8.776 27.488 21.032 51.472 28.408 64.696-25.84 2.248-88.528 4.296-134.16-22.336-59.016-34.448-91.488-89.56-91.808-90.112a8.008 8.008 0 0 0-14.52 1.488c-0.144 0.432-15.248 43.24-86.432 88.784-55.648 35.616-121.768 28.464-148.112 23.6 8.4-11.992 21.616-33.448 29.296-59zM293.656 572.32c-35.352-33.808-20.776-178.808-6.192-269.576 9.248 1.16 20.28 2.048 32.536 2.048 1.016 0 2.104-0.064 3.136-0.08v8.416c-0.88-0.088-1.744-0.264-2.64-0.264-19.6 0-34.952 20.232-34.952 46.056s15.352 46.048 34.952 46.048c2.576 0 5.072-0.376 7.472-1.056 12.984 56.528 51.352 103.472 102.472 128.056-1.152 0.16-2.288 0.352-3.432 0.528-0.936 0.136-1.88 0.192-2.816 0.344-0.224 0.04-0.408 0.168-0.632 0.224a239.536 239.536 0 0 0-112.712 51.112c-6.968-3.688-12.776-7.632-17.192-11.856z m-5.776 57.688c29.2 20.832 46.432 54.104 46.432 90.36v127.152H238.504v-77.328c0-53.016 18.528-101.752 49.376-140.184z m-49.376 309.568v-76.056h95.792v76.056H238.504z m194.976 0V587.848c21.304 37.752 71.376 71.816 74.056 73.624a7.976 7.976 0 0 0 8.944 0c2.68-1.808 52.752-35.872 74.056-73.624v179.784a8 8 0 1 0 16 0V550.472a224.504 224.504 0 0 1 119.168 67.368c-32.72 23.88-52.008 61.52-52.008 102.528v219.2h-67.168v-47.272a8 8 0 1 0-16 0v47.272H433.48z m352.016 0H689.704v-76.056h95.792v76.056z" fill="#3A2C60" p-id="3521"></path><path d="M598.52 863.52a8 8 0 0 0 8-8v-49.888a8 8 0 1 0-16 0v49.888a8 8 0 0 0 8 8zM432.208 318.24a18.08 18.08 0 1 0 0 36.168 18.08 18.08 0 0 0 0-36.168zM591.792 318.24a18.08 18.08 0 1 0 0 36.168 18.08 18.08 0 0 0 0-36.168zM512 424.824a28.6 28.6 0 0 0 28.568-28.568v-12.056a8 8 0 1 0-16 0v12.056c0 6.928-5.64 12.568-12.568 12.568s-12.568-5.64-12.568-12.568v-12.056a8 8 0 1 0-16 0v12.056A28.6 28.6 0 0 0 512 424.824zM578.032 301.296l35.416 6.168a8 8 0 0 0 2.752-15.76l-35.416-6.168a8 8 0 1 0-2.752 15.76zM409.168 307.584c0.456 0 0.912-0.04 1.384-0.12l35.416-6.168a8 8 0 1 0-2.752-15.76l-35.416 6.168a8 8 0 0 0 1.368 15.88z" fill="#3A2C60" p-id="3522"></path></svg>